# xmcd
#
# Track frame offsets: 
#        150
#        12379
#        33694
#        63695
#        84467
#        106519
#        126013
#        139685
#        159021
#        174590
#        209716
#        230413
#        247853
#        278010
#        299455
#        313881
#        329676
#
# Disc length: 4796 seconds
#
# Revision: 0
# Processed by: cddbd v1.5.2PL0 Copyright (c) Steve Scherf et al.
# Submitted via: ExactAudioCopy v1.3
#
DISCID=f412ba11
DTITLE=Various Artist - Akella Presents - vol.138 - Electric Blues  C
DTITLE=D1
DYEAR=2018
DGENRE=Blues
TTITLE0=Michael Quest - 24-7-365
TTITLE1=The Blues Overdrive - Death On the Highway
TTITLE2=Ben Poole - I Think I Love You Too Much
TTITLE3=Jim McCarty - Walkin' Thru The Back Streets
TTITLE4=John 'Juke' Logan - Love Me Like That
TTITLE5=Bluehouse Project - Piece of My Heart
TTITLE6=Barrence Whitfield - Wear Your Red Dress
TTITLE7=Steven Seagal - Somewhere In Between
TTITLE8=John McNamara - Bad Reputation
TTITLE9=Jimbo Ross - Fire On The Bayou
TTITLE10=Blues Dragon - Love's Fool
TTITLE11=Blues 'n' Trouble - Boogie Woogie Suzy Lee
TTITLE12=Dave Fields - You Don't Know
TTITLE13=Robbie McIntosh - Scarecrow
TTITLE14=Coco Montoya - Before The Bullets Fly
TTITLE15=Randy McAllister - State of Confusion
TTITLE16=Boogie Bone - Don't Mean A Thing
EXTD=
EXTT0=
EXTT1=
EXTT2=
EXTT3=
EXTT4=
EXTT5=
EXTT6=
EXTT7=
EXTT8=
EXTT9=
EXTT10=
EXTT11=
EXTT12=
EXTT13=
EXTT14=
EXTT15=
EXTT16=
PLAYORDER=
